<svg xmlns="http://www.w3.org/2000/svg" width="300" height="60" viewBox="0 0 300 60"><g transform="translate(-17671 -4528)"><path d="M16370.248,2619.4l31-17.2s-19.969,28.286-15.039,60c0,0-13.953-19.249-3.549-42.8Z" transform="translate(1382.752 1925.803)" fill="#e5221c"/><path d="M12.524-105.545V-139.63h7v28.3H34.272l.023,5.788Zm38.348.458a16.361,16.361,0,0,1-8.416-2.116,14.592,14.592,0,0,1-5.649-6.039,19.969,19.969,0,0,1-2.032-9.3A19.7,19.7,0,0,1,36.887-132a14.912,14.912,0,0,1,5.718-6,15.915,15.915,0,0,1,8.106-2.082,16.847,16.847,0,0,1,5.385.835,14.532,14.532,0,0,1,4.432,2.368,12.927,12.927,0,0,1,3.169,3.626,12.627,12.627,0,0,1,1.6,4.632H58.175a8.016,8.016,0,0,0-1.022-2.208,6.679,6.679,0,0,0-1.585-1.658,6.806,6.806,0,0,0-2.124-1.041,9.168,9.168,0,0,0-2.618-.355,8.353,8.353,0,0,0-4.662,1.315,8.622,8.622,0,0,0-3.146,3.832,14.977,14.977,0,0,0-1.125,6.131,15.2,15.2,0,0,0,1.114,6.142,8.617,8.617,0,0,0,3.135,3.855,8.5,8.5,0,0,0,4.777,1.327,9.339,9.339,0,0,0,4.248-.892,6.368,6.368,0,0,0,2.721-2.551,7.647,7.647,0,0,0,.953-3.877l1.47.206H51.4v-5.307H65.638v4.255a14.825,14.825,0,0,1-1.906,7.7,12.846,12.846,0,0,1-5.236,4.941A16.32,16.32,0,0,1,50.872-105.088Zm18.07-.458V-139.63H82.284a13.8,13.8,0,0,1,6.637,1.475,10.149,10.149,0,0,1,4.168,4.072,12.113,12.113,0,0,1,1.435,5.959,11.879,11.879,0,0,1-1.458,5.959,10.146,10.146,0,0,1-4.225,4.026,14.3,14.3,0,0,1-6.717,1.453H73.535v-5.627H81a7.482,7.482,0,0,0,3.548-.743,4.817,4.817,0,0,0,2.067-2.047,6.458,6.458,0,0,0,.677-3.02,6.389,6.389,0,0,0-.677-3.008,4.692,4.692,0,0,0-2.078-2.013,7.754,7.754,0,0,0-3.559-.721H75.946v28.32Z" transform="translate(17658.477 4681.088)" fill="#fff"/><g transform="translate(0 -1)"><g transform="translate(17781 4545)"><path d="M19.767-31.725v1.708a1.77,1.77,0,0,1-1.914-1.336,1.863,1.863,0,0,1-.539.736,2.088,2.088,0,0,1-.8.478,4.348,4.348,0,0,1-1.135.114H3.6Q0-30.024,0-31.96a4.075,4.075,0,0,1,.543-1.655q.543-1.07.982-1.07a.27.27,0,0,1,.307.3,2.5,2.5,0,0,1-.273.721,2.315,2.315,0,0,0-.265.812q0,1.124,2.585,1.124H15.906q1.176,0,1.176-.66a4.493,4.493,0,0,0-.555-2.141L17.6-36.188a12.446,12.446,0,0,1,.746,3.112q.008.873.4,1.112A1.927,1.927,0,0,0,19.767-31.725Zm-7.731-5.431q0,1.427-2.138,1.427H7.985q-.688,0-.9-.865H8.01a1.149,1.149,0,0,0,.4-.919,5.591,5.591,0,0,0-.29-2.368l.53-.789.729.683a1.806,1.806,0,0,0-.331,1.3l.017.531a5.629,5.629,0,0,1-.133.949A3.082,3.082,0,0,1,10.951-38.5Q12.036-38.5,12.036-37.155Zm-.663.167a.688.688,0,0,0-.182-.471.593.593,0,0,0-.464-.2,1.352,1.352,0,0,0-.737.3q-.166.114-.994.774h1.649Q11.374-36.593,11.374-36.988Zm12.4,5.256q1.077,0,1.077-.243,0-.691-1.827-1.947t-1.835-1.955q0-.934,1.371-1.867a22.809,22.809,0,0,1,5.05-2.164l-.828,1.86q-3.911,1.382-3.911,1.784a.442.442,0,0,0,.087.254,6.648,6.648,0,0,0,.783.695q.7.569,1.806,1.579a15.026,15.026,0,0,0,1.268,1.359,3.491,3.491,0,0,0,1.036.554,6.28,6.28,0,0,0,1.35.1v1.708a5.639,5.639,0,0,1-2.618-.429,2.575,2.575,0,0,1-1.06-1.089,1.844,1.844,0,0,1-.667,1.1,2.073,2.073,0,0,1-1.338.421h-4.5v-1.708Zm14.862,1.716h-.671a5.258,5.258,0,0,1-2.121-.292A2.613,2.613,0,0,1,34.8-31.466q-.928,1.45-1.848,1.45h-4.5v-1.708h4.408q.994,0,.994-.789a4.951,4.951,0,0,0-.547-1.936l1.268-2.042a16.347,16.347,0,0,1,.853,3.431,1.884,1.884,0,0,0,.157.664,1.006,1.006,0,0,0,.3.33,1.6,1.6,0,0,0,.456.22,2.3,2.3,0,0,0,.468.1q.2.019,1.827.019Zm9.436-3.8-.671,1.7a13.621,13.621,0,0,0-2.444.137,6.9,6.9,0,0,0-1.756.835,7.149,7.149,0,0,1-3.7,1.124H37.892v-1.708h2.444a7.808,7.808,0,0,0,3-.919,7.011,7.011,0,0,1,1.375-.509,4.56,4.56,0,0,0-2.519-1.07,1.458,1.458,0,0,0-.936.5q-.215.2-.331.2-.34,0-.34-.547a1.476,1.476,0,0,1,.675-1.188,2.274,2.274,0,0,1,1.388-.512,2.3,2.3,0,0,1,.853.167,10.934,10.934,0,0,1,1.524.881,5.365,5.365,0,0,0,1.553.733A6.162,6.162,0,0,0,48.074-33.812Zm-2.983,5.063L43.824-27.58l-1.276-1.169,1.276-1.161Zm6.984-1.328a3.471,3.471,0,0,1-.539.038,2.887,2.887,0,0,1-1.69-.338,1.24,1.24,0,0,1-.414-1.021,5.828,5.828,0,0,1,.63-2.349q.63-1.37,1.483-1.37.87,0,1.35,1.131a7.455,7.455,0,0,1,.481,2.892,4.55,4.55,0,0,1-1,2.835,3.081,3.081,0,0,1-2.543,1.3,8.043,8.043,0,0,1-1.951-.444q-1.421-.444-1.421-.778a.175.175,0,0,1,.116-.19,1.312,1.312,0,0,1,.373-.038,3.222,3.222,0,0,1,.572.076,4.15,4.15,0,0,0,.895.084,5.743,5.743,0,0,0,2.249-.566Q51.951-29.379,52.076-30.077Zm-.041-1.549a5.121,5.121,0,0,0-.162-1.245q-.162-.645-.435-.645-.232,0-.456.524a2.338,2.338,0,0,0-.224.881q0,.357.133.444a1.531,1.531,0,0,0,.671.087A1.941,1.941,0,0,0,52.034-31.626Zm10.638-.023v1.708h-.746a2.039,2.039,0,0,1-.973-.232,1.17,1.17,0,0,1-.576-.588,5.844,5.844,0,0,1-1.263,2.866,3,3,0,0,1-2.374,1.15,6.52,6.52,0,0,1-2.046-.509q-1.359-.509-1.359-.865,0-.243.414-.243.058,0,.563.106a6,6,0,0,0,1.143.1,4.531,4.531,0,0,0,2.775-1.078q1.392-1.078,1.392-1.86a3.968,3.968,0,0,0-1.367-2.816l1.135-2.05a8.667,8.667,0,0,1,.7,1.427,6.263,6.263,0,0,1,.369,1.564,1.618,1.618,0,0,0,.385,1.067,1.786,1.786,0,0,0,1.085.254Zm-.747,1.708v-1.708h3.732a2.515,2.515,0,0,0,.65-.11q.394-.11.394-.254a2.958,2.958,0,0,0-.936-2.141l.969-2.194a9.744,9.744,0,0,1,1.156,1.913,4.294,4.294,0,0,1,.3,1.632,3.536,3.536,0,0,1-.646,1.841,1.833,1.833,0,0,1-1.533,1.021Zm32.087-1.784v1.708A1.77,1.77,0,0,1,92.1-31.353a1.863,1.863,0,0,1-.539.736,2.088,2.088,0,0,1-.8.478,4.348,4.348,0,0,1-1.135.114H77.073q-3.6,0-3.6-1.936a4.075,4.075,0,0,1,.543-1.655q.543-1.07.982-1.07a.27.27,0,0,1,.307.3,2.5,2.5,0,0,1-.273.721,2.315,2.315,0,0,0-.265.812q0,1.124,2.585,1.124H90.152q1.176,0,1.176-.66a4.493,4.493,0,0,0-.555-2.141l1.077-1.662a12.445,12.445,0,0,1,.746,3.112q.008.873.4,1.112A1.927,1.927,0,0,0,94.013-31.725Zm-7.99-5.431q0,1.427-2.138,1.427H81.972q-.688,0-.9-.865H82a1.149,1.149,0,0,0,.4-.919,5.591,5.591,0,0,0-.29-2.368l.53-.789.729.683a1.806,1.806,0,0,0-.331,1.3l.017.531a5.632,5.632,0,0,1-.133.949A3.082,3.082,0,0,1,84.938-38.5Q86.023-38.5,86.023-37.155Zm-.663.167a.688.688,0,0,0-.182-.471.593.593,0,0,0-.464-.2,1.352,1.352,0,0,0-.737.3q-.166.114-.994.774h1.649Q85.36-36.593,85.36-36.988Zm18.088,6.972h-.671a5.258,5.258,0,0,1-2.121-.292,2.613,2.613,0,0,1-1.044-1.158q-.928,1.45-1.848,1.45h-4.5v-1.708h4.408q.994,0,.994-.789a4.951,4.951,0,0,0-.547-1.936l1.268-2.042a16.347,16.347,0,0,1,.853,3.431,1.884,1.884,0,0,0,.157.664,1.006,1.006,0,0,0,.3.33,1.6,1.6,0,0,0,.456.22,2.3,2.3,0,0,0,.468.1q.2.019,1.827.019Zm-3.43-8.654L98.751-37.5l-1.276-1.169,1.276-1.161Zm12.866,6.946v1.708a2.024,2.024,0,0,1-2.038-1.511,3.734,3.734,0,0,1-.82,1.017,2.06,2.06,0,0,1-1.036.585,5.578,5.578,0,0,0-1.483-1.093,5.17,5.17,0,0,1-1.355.816,3.663,3.663,0,0,1-1.181.178l-2.27.008v-1.708q1.889,0,2.341-.023t.9-.076a4,4,0,0,0,.721-.14.553.553,0,0,0,.34-.216,5.78,5.78,0,0,0,.215-.539,8.549,8.549,0,0,1,1.168-2.425,1.377,1.377,0,0,1,1.019-.535,1.525,1.525,0,0,1,.978.315,1.978,1.978,0,0,1,.609.865,3.219,3.219,0,0,1,.224,1.082,4.326,4.326,0,0,0,.087.85,1,1,0,0,0,.468.581A2,2,0,0,0,112.884-31.725Zm-4.49-.66a2.767,2.767,0,0,1,1.152.8,1.466,1.466,0,0,0,.4-1.1,2.132,2.132,0,0,0-.174-.816q-.174-.421-.447-.421-.149-.008-.447.5A5.941,5.941,0,0,0,108.394-32.385Zm3.744,2.368v-1.708h7.125a2.515,2.515,0,0,0,.65-.11q.394-.11.394-.254a2.958,2.958,0,0,0-.936-2.141l.969-2.194a9.747,9.747,0,0,1,1.156,1.913,4.3,4.3,0,0,1,.3,1.632,3.536,3.536,0,0,1-.646,1.841,1.833,1.833,0,0,1-1.533,1.021Zm9-8.9-1.268,1.169-1.276-1.169,1.276-1.161Zm3.872,4.881.845-2.072a5.587,5.587,0,0,1,1.98,4.373,5.867,5.867,0,0,1-1.1,3.3A3.22,3.22,0,0,1,124-26.805a7.957,7.957,0,0,1-2.216-.512q-1.52-.512-1.52-.862,0-.243.414-.243a3.714,3.714,0,0,1,.746.106,4.861,4.861,0,0,0,1.127.114,4.591,4.591,0,0,0,2.8-1.078q1.4-1.078,1.4-1.852A3.959,3.959,0,0,0,125.007-34.04Zm11.816,2.452v1.708h-1.74a4.491,4.491,0,0,1-1.263,2.19,3.015,3.015,0,0,1-2.125.846,8.3,8.3,0,0,1-1.939-.44q-1.433-.44-1.433-.752,0-.258.489-.258a3.829,3.829,0,0,1,.563.076,4.574,4.574,0,0,0,.9.084,5.79,5.79,0,0,0,2.241-.569q1.3-.569,1.413-1.23-.472.046-.539.046a2.806,2.806,0,0,1-1.653-.349,1.252,1.252,0,0,1-.443-1.048,6.167,6.167,0,0,1,.63-2.418q.63-1.416,1.475-1.416a1.425,1.425,0,0,1,1.255.964,6.713,6.713,0,0,1,.568,2.566Zm-2.925-.046a5.119,5.119,0,0,0-.162-1.245q-.161-.645-.435-.645-.207,0-.443.5a2.129,2.129,0,0,0-.236.9q0,.357.137.448a1.475,1.475,0,0,0,.667.091A2.139,2.139,0,0,0,133.9-31.633Zm13.191-8.555-.4,1a42.446,42.446,0,0,0-5.75,2.475l.273-1.078A57.325,57.325,0,0,1,147.089-40.189Zm-.033,1.579-.721,1.571q-4.151,1.336-4.151,1.594,0,.053.505.288a12.05,12.05,0,0,1,1.632.869,2.344,2.344,0,0,1,.882,1.021,3.656,3.656,0,0,1,.269,1.473,2.066,2.066,0,0,1-.236,1.036,1.543,1.543,0,0,1-.771.641,6.851,6.851,0,0,1-2.225.228l-6.166.008v-1.708h4.733q1.8,0,2.655-.03a4.8,4.8,0,0,0,.94-.076.141.141,0,0,0,.083-.129.962.962,0,0,0-.207-.577,1.8,1.8,0,0,0-.456-.444q-.249-.163-1.955-1.067-.92-.539-.92-1.086a1.5,1.5,0,0,1,.381-1.029,6.567,6.567,0,0,1,1.947-1.124Q144.844-37.843,147.056-38.61Zm11.859.137a2.676,2.676,0,0,0-.646,1.207q0,1.215.137,2.775t.207,1.959a.825.825,0,0,0,.572.6,3.946,3.946,0,0,0,1.437.2v1.708a2.028,2.028,0,0,1-1.98-1.2,4.173,4.173,0,0,1,.033.516q0,3.12-4.913,3.12a3.857,3.857,0,0,1-2.158-.558,1.786,1.786,0,0,1-.849-1.583,4.9,4.9,0,0,1,.435-1.628q.435-1.082.858-1.082.331,0,.331.3a2.773,2.773,0,0,1-.224.774,2.706,2.706,0,0,0-.215.827.964.964,0,0,0,.485.82,2.02,2.02,0,0,0,1.156.326q4.01,0,4.01-1.025a32.607,32.607,0,0,0-.435-4.376Q156.719-37.7,156.28-38q.414-.8,1.036-1.807A9.252,9.252,0,0,0,158.915-38.473Zm7.3,6.749q1.085,0,1.085-.281,0-.509-.953-1.275l-1.5-1.139a4.974,4.974,0,0,1-.928-.85,1.107,1.107,0,0,1-.282-.638q0-.934,1.371-1.864a23.146,23.146,0,0,1,5.05-2.167l-.828,1.86q-1.516.539-2.713,1.074t-1.2.71q0,.213.944.911a8.429,8.429,0,0,1,1.674,1.552,2.635,2.635,0,0,1,.572,1.651A2.247,2.247,0,0,1,168-30.442a2.924,2.924,0,0,1-1.831.425h-6.3v-1.708Zm13.28,0v1.708h-1.74a4.491,4.491,0,0,1-1.263,2.19,3.015,3.015,0,0,1-2.125.846,8.3,8.3,0,0,1-1.939-.44q-1.433-.44-1.433-.752,0-.258.489-.258a3.829,3.829,0,0,1,.563.076,4.574,4.574,0,0,0,.9.084,5.79,5.79,0,0,0,2.241-.569q1.3-.569,1.413-1.23-.472.046-.539.046a2.807,2.807,0,0,1-1.653-.349,1.252,1.252,0,0,1-.443-1.048,6.167,6.167,0,0,1,.63-2.418q.63-1.416,1.475-1.416a1.425,1.425,0,0,1,1.255.964,6.715,6.715,0,0,1,.567,2.566Zm-2.925-.046a5.121,5.121,0,0,0-.162-1.245q-.162-.645-.435-.645-.207,0-.443.5a2.129,2.129,0,0,0-.236.9q0,.357.137.448a1.475,1.475,0,0,0,.667.091A2.139,2.139,0,0,0,176.568-31.77ZM190-38.382l-.655.949a44.272,44.272,0,0,1,.555,5.678q0,1.442-2.477,1.738h-8.677v-1.708l9.2-.008q.638.015.638-.433A23.448,23.448,0,0,0,188.3-35.7a7.837,7.837,0,0,0-.754-2.642,14.333,14.333,0,0,1,1.276-1.693A5.977,5.977,0,0,0,190-38.382Z" transform="translate(0 40.67)" fill="#fff"/><path d="M195.716-41.175l-1.262-1.25-1.238,1.25,1.238,1.242Zm1.132-2.248L195.6-44.7l-1.14,1.144-1.246-1.25-1.238,1.25,1.262,1.266,1.116-1.136,1.246,1.242Z" transform="translate(-130.192 55.933)" fill="#fff"/><path d="M196.765-35.364,195.54-34.1l-1.121-1.131L193.2-34l-1.216-1.235,1.24-1.251,1.1,1.123,1.224-1.227Z" transform="translate(-164.838 47.926)" fill="#fff"/></g><g transform="translate(17782 4563)"><path d="M3.3-27.164v-9.572H5.149v7.947h3.9l.006,1.625Zm10.133.128a4.082,4.082,0,0,1-2.154-.578,4.024,4.024,0,0,1-1.513-1.677,5.822,5.822,0,0,1-.556-2.653,5.858,5.858,0,0,1,.556-2.663,4.02,4.02,0,0,1,1.513-1.68,4.082,4.082,0,0,1,2.154-.578,4.078,4.078,0,0,1,2.157.578,4.027,4.027,0,0,1,1.51,1.68,5.858,5.858,0,0,1,.556,2.663,5.822,5.822,0,0,1-.556,2.653,4.031,4.031,0,0,1-1.51,1.677A4.078,4.078,0,0,1,13.429-27.036Zm0-1.741a2.111,2.111,0,0,0,1.23-.363,2.339,2.339,0,0,0,.817-1.073,4.561,4.561,0,0,0,.292-1.731,4.6,4.6,0,0,0-.292-1.744,2.339,2.339,0,0,0-.817-1.073,2.111,2.111,0,0,0-1.23-.363,2.1,2.1,0,0,0-1.227.366,2.351,2.351,0,0,0-.82,1.076,4.581,4.581,0,0,0-.292,1.738,4.536,4.536,0,0,0,.292,1.728,2.353,2.353,0,0,0,.82,1.073A2.1,2.1,0,0,0,13.429-28.777Zm9.046,1.741a4.062,4.062,0,0,1-2.154-.578,4,4,0,0,1-1.5-1.677,5.876,5.876,0,0,1-.55-2.653,5.885,5.885,0,0,1,.553-2.663,4.007,4.007,0,0,1,1.507-1.68,4.055,4.055,0,0,1,2.145-.578,4.4,4.4,0,0,1,1.437.228,3.637,3.637,0,0,1,1.182.665,3.482,3.482,0,0,1,.844,1.07,4.289,4.289,0,0,1,.431,1.442H24.492a2.034,2.034,0,0,0-.234-.7,1.874,1.874,0,0,0-.431-.52,1.824,1.824,0,0,0-.592-.328,2.253,2.253,0,0,0-.723-.112,2.1,2.1,0,0,0-1.236.373,2.4,2.4,0,0,0-.826,1.083,4.5,4.5,0,0,0-.295,1.725,4.492,4.492,0,0,0,.3,1.741,2.348,2.348,0,0,0,.826,1.066,2.128,2.128,0,0,0,1.227.36,2.226,2.226,0,0,0,.72-.112,1.9,1.9,0,0,0,.6-.328,1.811,1.811,0,0,0,.437-.524,2.16,2.16,0,0,0,.24-.7h1.877A3.806,3.806,0,0,1,26-29.162a3.922,3.922,0,0,1-.8,1.092,3.634,3.634,0,0,1-1.185.758A4.1,4.1,0,0,1,22.475-27.036Zm3.864-.128,3.092-9.572h2.43l3.171,9.572H32.972l-1.452-4.619q-.261-.893-.532-1.956t-.568-2.322h.407q-.292,1.266-.544,2.335t-.5,1.943l-1.4,4.619Zm1.932-2.223v-1.535H33.1v1.535Zm7.357,2.223v-9.572H37.48v7.947h3.9l.006,1.625Zm12.946.128a4.133,4.133,0,0,1-2.227-.594,4.01,4.01,0,0,1-1.494-1.7,5.9,5.9,0,0,1-.538-2.612,5.815,5.815,0,0,1,.559-2.657,4.091,4.091,0,0,1,1.513-1.686,4.021,4.021,0,0,1,2.145-.585,4.221,4.221,0,0,1,1.425.234,3.778,3.778,0,0,1,1.172.665,3.575,3.575,0,0,1,.838,1.018,3.694,3.694,0,0,1,.422,1.3H50.5a2.318,2.318,0,0,0-.27-.62,1.833,1.833,0,0,0-.419-.466,1.76,1.76,0,0,0-.562-.292,2.294,2.294,0,0,0-.693-.1,2.116,2.116,0,0,0-1.233.369,2.4,2.4,0,0,0-.832,1.076,4.434,4.434,0,0,0-.3,1.722,4.5,4.5,0,0,0,.295,1.725,2.4,2.4,0,0,0,.829,1.083,2.154,2.154,0,0,0,1.264.373,2.35,2.35,0,0,0,1.124-.251,1.731,1.731,0,0,0,.72-.716,2.253,2.253,0,0,0,.252-1.089l.389.058H48.713v-1.49h3.767v1.195a4.367,4.367,0,0,1-.5,2.162,3.493,3.493,0,0,1-1.385,1.388A4.112,4.112,0,0,1,48.573-27.036Zm8.778,0a4.082,4.082,0,0,1-2.154-.578,4.024,4.024,0,0,1-1.513-1.677,5.822,5.822,0,0,1-.556-2.653,5.858,5.858,0,0,1,.556-2.663,4.02,4.02,0,0,1,1.513-1.68,4.082,4.082,0,0,1,2.154-.578,4.078,4.078,0,0,1,2.157.578,4.027,4.027,0,0,1,1.51,1.68,5.858,5.858,0,0,1,.556,2.663,5.822,5.822,0,0,1-.556,2.653,4.031,4.031,0,0,1-1.51,1.677A4.078,4.078,0,0,1,57.351-27.036Zm0-1.741a2.111,2.111,0,0,0,1.23-.363,2.339,2.339,0,0,0,.817-1.073,4.561,4.561,0,0,0,.292-1.731,4.6,4.6,0,0,0-.292-1.744,2.339,2.339,0,0,0-.817-1.073,2.111,2.111,0,0,0-1.23-.363,2.1,2.1,0,0,0-1.227.366,2.351,2.351,0,0,0-.82,1.076,4.581,4.581,0,0,0-.292,1.738,4.536,4.536,0,0,0,.292,1.728,2.353,2.353,0,0,0,.82,1.073A2.1,2.1,0,0,0,57.351-28.777Zm7.241,1.613-3.171-9.572h2.059l1.446,4.619q.261.874.529,1.924t.565,2.3h-.4q.292-1.259.547-2.3t.5-1.918l1.4-4.619h2.047l-3.1,9.572Zm6.118,0v-9.572h6.057v1.625h-4.2V-32.8h3.882l.006,1.6-3.888-.006v2.416h4.216v1.625Zm7.035,0v-9.572h3.53a3.689,3.689,0,0,1,1.756.385,2.632,2.632,0,0,1,1.1,1.086,3.4,3.4,0,0,1,.38,1.645,3.264,3.264,0,0,1-.386,1.629,2.548,2.548,0,0,1-1.118,1.047,3.969,3.969,0,0,1-1.777.363H78.839v-1.587h2.1a2.3,2.3,0,0,0,.936-.164,1.144,1.144,0,0,0,.547-.488,1.613,1.613,0,0,0,.182-.8,1.679,1.679,0,0,0-.182-.819,1.183,1.183,0,0,0-.55-.5,2.2,2.2,0,0,0-.939-.173H79.6v7.954Zm5.036,0L80.576-31.52h2.011l2.248,4.356Zm2.612,0v-9.572h2.066l2.861,4.844q.219.373.443.809t.459.97q.234.533.465,1.2H91.5q-.043-.533-.076-1.137t-.058-1.156q-.024-.553-.024-.938v-4.594h1.9v9.572H91.165l-2.6-4.394q-.286-.495-.529-.96t-.507-1.028q-.264-.562-.629-1.346h.237q.036.694.073,1.33t.058,1.153q.021.517.021.845v4.4Zm8.961,0v-9.572H97.2l1.47,4.394q.091.308.21.8t.24,1.054q.122.565.228,1.1t.173.925H99.16q.067-.385.173-.915t.228-1.1q.122-.565.24-1.06t.21-.8l1.446-4.394h2.855v9.572h-1.865v-4.51q0-.315.009-.784t.024-1.012q.015-.543.027-1.092t.018-1.038h.115q-.115.533-.255,1.1t-.282,1.1q-.143.533-.27.98t-.219.742l-1.5,4.51H98.552l-1.525-4.51q-.091-.3-.219-.736t-.27-.973q-.143-.533-.289-1.1T95.976-35.6h.14q.006.463.018,1.009t.027,1.1q.015.549.024,1.021t.009.8v4.51Zm11.069,0v-9.572h6.057v1.625h-4.2V-32.8h3.882l.006,1.6-3.888-.006v2.416h4.216v1.625Zm7.035,0v-9.572h2.066l2.861,4.844q.219.373.443.809t.459.97q.234.533.465,1.2h-.188q-.043-.533-.076-1.137t-.058-1.156q-.024-.553-.024-.938v-4.594h1.9v9.572h-2.072l-2.6-4.394q-.286-.495-.529-.96t-.507-1.028q-.264-.562-.629-1.346h.237q.036.694.073,1.33t.058,1.153q.021.517.021.845v4.4Zm8.6-7.947-.006-1.625h7.393v1.625h-2.77l.006,7.947h-1.853l-.006-7.947Zm10.564,7.947v-9.572h3.53a3.478,3.478,0,0,1,1.756.414,2.768,2.768,0,0,1,1.1,1.144,3.571,3.571,0,0,1,.38,1.674,3.5,3.5,0,0,1-.386,1.674,2.762,2.762,0,0,1-1.118,1.131,3.6,3.6,0,0,1-1.777.408H132.84v-1.58h1.974a1.884,1.884,0,0,0,.939-.209,1.316,1.316,0,0,0,.547-.575,1.907,1.907,0,0,0,.179-.848,1.886,1.886,0,0,0-.179-.845,1.279,1.279,0,0,0-.55-.565,1.951,1.951,0,0,0-.942-.2h-1.33v7.954Zm7.539,0v-9.572h3.53a3.689,3.689,0,0,1,1.756.385,2.632,2.632,0,0,1,1.1,1.086,3.4,3.4,0,0,1,.38,1.645,3.264,3.264,0,0,1-.386,1.629,2.548,2.548,0,0,1-1.118,1.047,3.969,3.969,0,0,1-1.777.363h-2.394v-1.587h2.1a2.3,2.3,0,0,0,.936-.164,1.144,1.144,0,0,0,.547-.488,1.613,1.613,0,0,0,.182-.8,1.679,1.679,0,0,0-.182-.819,1.183,1.183,0,0,0-.55-.5,2.2,2.2,0,0,0-.939-.173h-1.33v7.954Zm5.036,0-2.205-4.356h2.011l2.248,4.356Zm6.585.128a4.082,4.082,0,0,1-2.154-.578,4.024,4.024,0,0,1-1.513-1.677,5.821,5.821,0,0,1-.556-2.653,5.857,5.857,0,0,1,.556-2.663,4.02,4.02,0,0,1,1.513-1.68,4.082,4.082,0,0,1,2.154-.578,4.078,4.078,0,0,1,2.157.578,4.026,4.026,0,0,1,1.51,1.68,5.857,5.857,0,0,1,.556,2.663,5.821,5.821,0,0,1-.556,2.653,4.03,4.03,0,0,1-1.51,1.677A4.078,4.078,0,0,1,150.785-27.036Zm0-1.741a2.111,2.111,0,0,0,1.23-.363,2.339,2.339,0,0,0,.817-1.073,4.561,4.561,0,0,0,.292-1.731,4.6,4.6,0,0,0-.292-1.744,2.339,2.339,0,0,0-.817-1.073,2.111,2.111,0,0,0-1.23-.363,2.1,2.1,0,0,0-1.227.366,2.351,2.351,0,0,0-.82,1.076,4.58,4.58,0,0,0-.292,1.738,4.536,4.536,0,0,0,.292,1.728,2.353,2.353,0,0,0,.82,1.073A2.1,2.1,0,0,0,150.785-28.777Zm7.715,1.741a3.068,3.068,0,0,1-2.22-.781,2.946,2.946,0,0,1-.811-2.226V-30.6h1.853v.591a1.506,1.506,0,0,0,.319,1.041,1.1,1.1,0,0,0,.86.353,1.091,1.091,0,0,0,.857-.353,1.527,1.527,0,0,0,.316-1.047v-6.72h1.835v6.688a2.974,2.974,0,0,1-.8,2.233A3.027,3.027,0,0,1,158.5-27.036Zm4.125-.128v-9.572h6.057v1.625h-4.2V-32.8h3.882l.006,1.6-3.888-.006v2.416h4.216v1.625Zm10.99.128a4.062,4.062,0,0,1-2.154-.578,4,4,0,0,1-1.5-1.677,5.876,5.876,0,0,1-.55-2.653,5.885,5.885,0,0,1,.553-2.663,4.007,4.007,0,0,1,1.507-1.68,4.055,4.055,0,0,1,2.144-.578,4.4,4.4,0,0,1,1.437.228,3.636,3.636,0,0,1,1.182.665,3.482,3.482,0,0,1,.844,1.07,4.288,4.288,0,0,1,.431,1.442h-1.877a2.034,2.034,0,0,0-.234-.7,1.874,1.874,0,0,0-.431-.52,1.824,1.824,0,0,0-.592-.328,2.253,2.253,0,0,0-.723-.112,2.1,2.1,0,0,0-1.236.373,2.4,2.4,0,0,0-.826,1.083,4.5,4.5,0,0,0-.295,1.725,4.492,4.492,0,0,0,.3,1.741,2.348,2.348,0,0,0,.826,1.066,2.128,2.128,0,0,0,1.227.36,2.226,2.226,0,0,0,.72-.112,1.9,1.9,0,0,0,.6-.328,1.811,1.811,0,0,0,.437-.524,2.16,2.16,0,0,0,.24-.7h1.877a3.806,3.806,0,0,1-.374,1.278,3.921,3.921,0,0,1-.8,1.092,3.634,3.634,0,0,1-1.185.758A4.1,4.1,0,0,1,173.615-27.036Zm4.368-8.076-.006-1.625h7.393v1.625H182.6l.006,7.947h-1.853l-.006-7.947Z" transform="translate(-3.296 36.865)" fill="#fff"/><path d="M5.076-26.993a3.3,3.3,0,0,1-1.568-.354,2.485,2.485,0,0,1-1.04-1.05,3.757,3.757,0,0,1-.393-1.714h1.5A1.759,1.759,0,0,0,3.8-29.3a1.245,1.245,0,0,0,.524.487,1.654,1.654,0,0,0,.74.161,1.594,1.594,0,0,0,.717-.151,1.145,1.145,0,0,0,.476-.429,1.2,1.2,0,0,0,.171-.644.946.946,0,0,0-.154-.551,1.288,1.288,0,0,0-.441-.383,3.425,3.425,0,0,0-.7-.284l-.826-.264a3.11,3.11,0,0,1-1.49-.931,2.506,2.506,0,0,1-.539-1.679,3.058,3.058,0,0,1,.365-1.521,2.6,2.6,0,0,1,1-1.012A2.894,2.894,0,0,1,5.1-36.865a2.808,2.808,0,0,1,1.45.364,2.544,2.544,0,0,1,.967,1.012A3.19,3.19,0,0,1,7.87-34H6.385a1.281,1.281,0,0,0-.385-.9,1.308,1.308,0,0,0-.919-.316,1.443,1.443,0,0,0-.665.142.989.989,0,0,0-.42.393,1.136,1.136,0,0,0-.143.574,1,1,0,0,0,.166.59,1.229,1.229,0,0,0,.443.38,3.5,3.5,0,0,0,.589.242l.68.213a4,4,0,0,1,.881.367,2.884,2.884,0,0,1,.715.57,2.4,2.4,0,0,1,.476.8,3.123,3.123,0,0,1,.169,1.07,3.2,3.2,0,0,1-.342,1.518,2.394,2.394,0,0,1-.992,1A3.214,3.214,0,0,1,5.076-26.993Z" transform="translate(180.029 36.993)" fill="#fff"/></g></g></g></svg>