<?xml version="1.0" encoding="UTF-8"?>
<svg width="24px" height="24px" viewBox="0 0 24 24" version="1.1" xmlns="http://www.w3.org/2000/svg" xmlns:xlink="http://www.w3.org/1999/xlink">
    <title>icon/cancel</title>
    <g id="Symbols" stroke="none" stroke-width="1" fill="none" fill-rule="evenodd">
        <g id="cancel" transform="translate(1.000000, 1.000000)">
            <rect id="Rectangle" stroke="#FFFFFF" stroke-width="2" x="0" y="0" width="22" height="22" rx="11"></rect>
            <g id="icon/navigation/check_24px" transform="translate(6.000000, 6.000000)" fill="#FFFFFF">
                <path d="M8.67208333,1.32791667 C8.44495623,1.10078956 8.07671044,1.10078956 7.84958333,1.32791667 L5,4.1775 L5,4.1775 L2.15041667,1.32791667 C1.92328956,1.10078956 1.55504377,1.10078956 1.32791667,1.32791667 C1.10078956,1.55504377 1.10078956,1.92328956 1.32791667,2.15041667 L4.1775,5 L4.1775,5 L1.32791667,7.84958333 C1.10078956,8.07671044 1.10078956,8.44495623 1.32791667,8.67208333 C1.55504377,8.89921044 1.92328956,8.89921044 2.15041667,8.67208333 L5,5.8225 L5,5.8225 L7.84958333,8.67208333 C8.07671044,8.89921044 8.44495623,8.89921044 8.67208333,8.67208333 C8.89921044,8.44495623 8.89921044,8.07671044 8.67208333,7.84958333 L5.8225,5 L5.8225,5 L8.67208333,2.15041667 C8.89921044,1.92328956 8.89921044,1.55504377 8.67208333,1.32791667 Z" id="icon/navigation/close_24px"></path>
            </g>
        </g>
    </g>
</svg>